# This file uses centimeters as units for non-parametric coordinates.

mtllib door.mtl
g default
v 8.888849 -0.400002 -12.344789
v -8.888850 -0.400002 -12.344789
v 8.888849 -0.400002 12.344788
v -8.888850 -0.400002 12.344788
v 8.888849 0.399994 -12.344789
v 8.888849 0.399994 12.344788
v -8.888850 0.399994 -12.344789
v -8.888850 0.399994 12.344788
vt 0.847134 0.578932
vt 0.847134 0.001992
vt 0.865829 0.578932
vt 0.865829 0.001992
vt 0.890790 0.001992
vt 0.890790 0.578932
vt 0.872096 0.001992
vt 0.872096 0.578932
vt 0.913019 0.582583
vt 0.913019 0.998008
vt 0.894325 0.582583
vt 0.894325 0.998008
vt 0.870018 0.998008
vt 0.870018 0.582583
vt 0.888712 0.998008
vt 0.888712 0.582583
vt 0.417247 0.001992
vt 0.417247 0.578932
vt 0.001822 0.001992
vt 0.001822 0.578932
vt 0.839992 0.578932
vt 0.424568 0.578932
vt 0.839992 0.001992
vt 0.424568 0.001992
vn 0.000000 1.000000 0.000000
vn 0.000000 1.000000 0.000000
vn 0.000000 1.000000 0.000000
vn 0.000000 1.000000 0.000000
vn 0.000000 -1.000000 -0.000000
vn 0.000000 -1.000000 -0.000000
vn 0.000000 -1.000000 -0.000000
vn 0.000000 -1.000000 -0.000000
vn 1.000000 -0.000000 0.000000
vn 1.000000 -0.000000 0.000000
vn 1.000000 -0.000000 0.000000
vn 1.000000 -0.000000 0.000000
vn 0.000000 0.000000 -1.000000
vn 0.000000 0.000000 -1.000000
vn 0.000000 0.000000 -1.000000
vn 0.000000 0.000000 -1.000000
vn -1.000000 0.000000 0.000000
vn -1.000000 0.000000 0.000000
vn -1.000000 0.000000 0.000000
vn -1.000000 0.000000 0.000000
vn 0.000000 -0.000000 1.000000
vn 0.000000 -0.000000 1.000000
vn 0.000000 -0.000000 1.000000
vn 0.000000 -0.000000 1.000000
s 1
g Door
usemtl initialShadingGroup
f 6/17/1 5/18/2 8/19/3
f 8/19/3 5/18/2 7/20/4
s 2
f 3/21/5 4/22/6 1/23/7
f 1/23/7 4/22/6 2/24/8
s 3
f 3/1/9 1/2/10 6/3/11
f 6/3/11 1/2/10 5/4/12
s 4
f 1/9/13 2/10/14 5/11/15
f 5/11/15 2/10/14 7/12/16
s 5
f 2/5/17 4/6/18 7/7/19
f 7/7/19 4/6/18 8/8/20
s 6
f 4/13/21 3/14/22 8/15/23
f 8/15/23 3/14/22 6/16/24
