# This file uses centimeters as units for non-parametric coordinates.

mtllib fridge.mtl
g default
v 1.968103 1.772285 -1.873477
v 1.968103 4.386057 -1.873477
v 1.968103 4.386057 -2.122705
v 1.968103 1.772285 -2.122705
v 2.271105 1.744190 -1.861739
v 2.256307 1.731153 -1.847903
v 2.256307 4.427188 -1.847903
v 2.271105 4.414152 -1.861739
v 2.256307 4.427188 -2.148278
v 2.271105 4.414554 -2.134844
v 2.256307 1.731153 -2.148278
v 2.271105 1.744190 -2.134443
v -2.621545 0.316673 2.616540
v 1.512504 0.316673 2.616540
v -2.621545 10.185526 2.616540
v 1.512504 10.185526 2.616540
v -2.621545 10.185526 -2.616540
v 1.512504 10.185526 -2.616540
v -2.621545 0.316673 -2.616540
v 1.512504 0.316673 -2.616540
v 1.968104 0.416672 -2.516541
v 1.968104 0.416672 2.516541
v 1.968104 10.085527 -2.516541
v 1.968104 10.085527 2.516541
v 1.512504 5.251100 2.616540
v -2.621545 5.251100 2.616540
v -2.621545 5.251100 -2.616540
v 1.512504 5.251100 -2.616540
v 1.820787 5.251100 -2.432826
v 1.820787 5.251100 2.432826
v -2.621545 5.445293 -2.616540
v 1.512504 5.445293 -2.616540
v 1.968104 5.441359 -2.516541
v 1.968103 5.441360 2.516541
v 1.512504 5.445294 2.616540
v -2.621545 5.445294 2.616540
v -2.621545 5.096455 2.616540
v 1.512504 5.096455 2.616540
v 1.968104 5.099588 2.516541
v 1.968104 5.099587 -2.516541
v 1.512504 5.096454 -2.616540
v -2.621545 5.096454 -2.616540
v 1.968103 6.237581 -1.873477
v 1.968103 8.851354 -1.873477
v 1.968103 8.851354 -2.122705
v 1.968103 6.237581 -2.122705
v 2.271105 6.209486 -1.861739
v 2.256307 6.196448 -1.847903
v 2.256307 8.892485 -1.847903
v 2.271105 8.879448 -1.861739
v 2.256307 8.892485 -2.148278
v 2.271105 8.879849 -2.134844
v 2.256307 6.196448 -2.148278
v 2.271105 6.209486 -2.134443
vt 0.586220 0.101555
vt 0.586220 0.067567
vt 0.942677 0.067566
vt 0.942676 0.101555
vt 0.582389 0.179936
vt 0.580612 0.181823
vt 0.580610 0.140859
vt 0.582389 0.142746
vt 0.946508 0.179936
vt 0.948286 0.181823
vt 0.946563 0.142692
vt 0.948286 0.140859
vt 0.580611 0.028262
vt 0.948286 0.028262
vt 0.987591 0.178335
vt 0.987590 0.144347
vt 0.541305 0.144352
vt 0.541309 0.178340
vt 0.506397 0.492402
vt 0.716348 0.492402
vt 0.716348 0.500256
vt 0.506397 0.500256
vt 0.506397 0.750855
vt 0.506397 0.960807
vt 0.240630 0.960807
vt 0.240630 0.750855
vt 0.240630 0.500256
vt 0.030678 0.500256
vt 0.030678 0.492402
vt 0.240630 0.492402
vt 0.240629 0.249656
vt 0.240629 0.039705
vt 0.506396 0.039705
vt 0.506396 0.249656
vt 0.739486 0.492561
vt 0.995096 0.492561
vt 0.990844 0.500256
vt 0.743738 0.500256
vt 0.240630 0.492402
vt 0.506397 0.492402
vt 0.506397 0.500256
vt 0.240630 0.500256
vt 0.245708 0.016567
vt 0.501318 0.016567
vt 0.007540 0.492561
vt 0.015022 0.500256
vt 0.501318 0.983945
vt 0.245708 0.983945
vt 0.732005 0.500256
vt 0.716348 0.510118
vt 0.506397 0.510118
vt 0.240630 0.510118
vt 0.030678 0.510118
vt 0.007540 0.509918
vt 0.995096 0.509918
vt 0.739486 0.509918
vt 0.030678 0.750856
vt 0.007540 0.745777
vt 0.995096 0.745777
vt 0.739486 0.745777
vt 0.716348 0.750855
vt 0.506397 0.249656
vt 0.716348 0.249656
vt 0.739486 0.254735
vt 0.995096 0.254735
vt 0.030678 0.249657
vt 0.007540 0.254735
vt 0.240629 0.249656
vt 0.586220 0.101556
vt 0.586221 0.067568
vt 0.942677 0.067566
vt 0.942677 0.101555
vt 0.582389 0.179937
vt 0.580613 0.181824
vt 0.580609 0.140860
vt 0.582389 0.142747
vt 0.946508 0.179937
vt 0.948285 0.181824
vt 0.946563 0.142692
vt 0.948287 0.140860
vt 0.580611 0.028263
vt 0.948286 0.028262
vt 0.987589 0.178339
vt 0.987592 0.144351
vt 0.541304 0.144356
vt 0.541311 0.178344
vn -1.000000 0.000000 0.000000
vn -1.000000 0.000000 0.000000
vn -1.000000 0.000000 0.000000
vn -1.000000 0.000000 0.000000
vn 0.661042 -0.750349 0.000000
vn 0.661042 -0.750349 0.000000
vn 0.661042 -0.750349 0.000000
vn 0.661042 -0.750349 0.000000
vn 0.682959 0.000000 0.730457
vn 0.682959 0.000000 0.730457
vn 0.682959 0.000000 0.730457
vn 0.682959 0.000000 0.730456
vn 0.655259 0.755405 0.000529
vn 0.655259 0.755405 0.000529
vn 0.655259 0.755405 0.000529
vn 0.655259 0.755405 0.000529
vn 0.677612 -0.000055 -0.735419
vn 0.677612 -0.000055 -0.735419
vn 0.677612 -0.000055 -0.735419
vn 0.677612 -0.000055 -0.735419
vn -0.088387 0.000000 0.996086
vn -0.088387 0.000000 0.996086
vn -0.088387 0.000000 0.996086
vn -0.088387 0.000000 0.996086
vn -0.141284 0.989969 0.000000
vn -0.141284 0.989969 0.000000
vn -0.141284 0.989969 0.000000
vn -0.141284 0.989969 0.000000
vn -0.088386 0.000000 -0.996086
vn -0.088386 0.000000 -0.996086
vn -0.088386 0.000000 -0.996086
vn -0.088386 0.000000 -0.996086
vn -0.141288 -0.989969 0.000000
vn -0.141288 -0.989969 0.000000
vn -0.141288 -0.989969 0.000000
vn -0.141288 -0.989969 0.000000
vn 1.000000 0.000000 0.000000
vn 1.000000 0.000000 0.000000
vn 1.000000 0.000000 0.000000
vn 1.000000 0.000000 0.000000
vn 0.000000 0.000000 1.000000
vn 0.021952 0.001163 0.999758
vn 0.000000 0.000000 1.000000
vn 0.031006 0.000000 0.999519
vn 0.000000 1.000000 0.000000
vn 0.018776 0.999824 0.000000
vn 0.000000 1.000000 0.000000
vn 0.018776 0.999824 0.000000
vn 0.000000 0.000000 -1.000000
vn 0.031006 0.000000 -0.999519
vn 0.000000 0.000000 -1.000000
vn 0.021952 0.001163 -0.999758
vn 0.000000 -1.000000 0.000000
vn 0.018777 -0.999824 0.000000
vn 0.000000 -1.000000 0.000000
vn 0.018777 -0.999824 0.000000
vn 0.999737 0.022946 0.000000
vn 0.999737 0.022946 0.000000
vn 0.999955 0.009492 0.000000
vn 0.999955 0.009491 0.000000
vn -1.000000 0.000000 0.000000
vn -1.000000 0.000000 0.000000
vn -1.000000 0.000001 0.000000
vn -1.000000 0.000001 0.000000
vn 0.018777 -0.999824 0.000000
vn 0.018777 -0.999824 0.000000
vn 0.214387 -0.976749 0.000000
vn 0.214387 -0.976749 0.000000
vn 0.216741 0.007442 -0.976201
vn 0.021952 0.001163 -0.999758
vn 0.346642 0.004131 -0.937988
vn 0.031006 0.000000 -0.999519
vn 0.018776 0.999824 0.000000
vn 0.018776 0.999824 0.000000
vn 0.214387 0.976749 0.000000
vn 0.214387 0.976749 0.000000
vn 0.031006 0.000000 0.999519
vn 0.021952 0.001163 0.999758
vn 0.346642 0.004131 0.937988
vn 0.216742 0.007442 0.976201
vn 0.000000 0.000000 1.000000
vn 0.031006 0.000000 0.999519
vn 0.000000 0.000000 1.000000
vn 0.022043 -0.001162 0.999756
vn -1.000000 0.000001 0.000000
vn -1.000000 0.000001 0.000000
vn -1.000000 0.000000 0.000000
vn -1.000000 0.000000 0.000000
vn 0.000000 0.000000 -1.000000
vn 0.022043 -0.001162 -0.999756
vn 0.000000 0.000000 -1.000000
vn 0.031006 0.000000 -0.999519
vn 0.031006 0.000000 -0.999519
vn 0.022043 -0.001162 -0.999756
vn 0.346642 0.004131 -0.937988
vn 0.217570 -0.008009 -0.976012
vn 0.999955 0.009492 0.000000
vn 0.999955 0.009491 0.000000
vn 0.999717 -0.023784 0.000000
vn 0.999717 -0.023784 0.000000
vn 0.217570 -0.008009 0.976012
vn 0.022043 -0.001162 0.999756
vn 0.346642 0.004131 0.937988
vn 0.031006 0.000000 0.999519
vn 0.000000 0.000000 -1.000000
vn 0.018933 0.000000 -0.999821
vn 0.000000 0.000000 -1.000000
vn 0.022043 -0.001162 -0.999756
vn 0.217570 -0.008009 -0.976012
vn 0.022043 -0.001162 -0.999756
vn 0.214387 0.000000 -0.976749
vn 0.018933 0.000000 -0.999821
vn 0.999717 -0.023784 0.000000
vn 0.999717 -0.023784 0.000000
vn 1.000000 0.000000 0.000000
vn 1.000000 0.000000 0.000000
vn 0.018934 0.000000 0.999821
vn 0.022043 -0.001162 0.999756
vn 0.214387 0.000000 0.976749
vn 0.217570 -0.008009 0.976012
vn 0.000000 0.000000 1.000000
vn 0.022043 -0.001162 0.999756
vn 0.000000 0.000000 1.000000
vn 0.018934 0.000000 0.999821
vn -1.000000 0.000000 0.000000
vn -1.000000 0.000000 0.000000
vn -1.000000 0.000000 0.000000
vn -1.000000 0.000000 0.000000
vn 0.000000 0.000000 1.000000
vn 0.018933 0.000000 0.999821
vn 0.000000 0.000000 1.000000
vn 0.021952 0.001163 0.999758
vn 0.216742 0.007442 0.976201
vn 0.021952 0.001163 0.999758
vn 0.214387 0.000000 0.976749
vn 0.018933 0.000000 0.999821
vn 1.000000 0.000000 0.000000
vn 1.000000 0.000000 0.000000
vn 0.999737 0.022946 0.000000
vn 0.999737 0.022946 0.000000
vn 0.018933 0.000000 -0.999821
vn 0.021952 0.001163 -0.999758
vn 0.214387 0.000000 -0.976749
vn 0.216741 0.007442 -0.976201
vn 0.000000 0.000000 -1.000000
vn 0.021952 0.001163 -0.999758
vn 0.000000 0.000000 -1.000000
vn 0.018933 0.000000 -0.999821
vn -1.000000 0.000000 0.000000
vn -1.000000 0.000000 0.000000
vn -1.000000 0.000000 0.000000
vn -1.000000 0.000000 0.000000
vn -1.000000 0.000000 0.000000
vn -1.000000 0.000000 0.000000
vn -1.000000 0.000000 0.000000
vn -1.000000 0.000000 0.000000
vn 0.661042 -0.750349 0.000000
vn 0.661042 -0.750349 0.000000
vn 0.661042 -0.750349 0.000000
vn 0.661042 -0.750349 0.000000
vn 0.682954 0.000000 0.730461
vn 0.682954 0.000000 0.730461
vn 0.682954 0.000000 0.730461
vn 0.682954 0.000000 0.730461
vn 0.655262 0.755402 0.000528
vn 0.655262 0.755402 0.000528
vn 0.655262 0.755402 0.000528
vn 0.655262 0.755402 0.000528
vn 0.677612 -0.000055 -0.735419
vn 0.677612 -0.000055 -0.735419
vn 0.677612 -0.000055 -0.735419
vn 0.677612 -0.000055 -0.735419
vn -0.088387 0.000000 0.996086
vn -0.088387 0.000000 0.996086
vn -0.088387 0.000000 0.996086
vn -0.088387 0.000000 0.996086
vn -0.141285 0.989969 0.000000
vn -0.141285 0.989969 0.000000
vn -0.141285 0.989969 0.000000
vn -0.141285 0.989969 0.000000
vn -0.088386 0.000000 -0.996086
vn -0.088386 0.000000 -0.996086
vn -0.088386 0.000000 -0.996086
vn -0.088386 0.000000 -0.996086
vn -0.141288 -0.989969 0.000000
vn -0.141288 -0.989969 0.000000
vn -0.141288 -0.989969 0.000000
vn -0.141288 -0.989969 0.000000
vn 1.000000 0.000000 0.000000
vn 1.000000 0.000000 0.000000
vn 1.000000 0.000000 0.000000
vn 1.000000 0.000000 0.000000
s 1
g fridge1:Fridge
usemtl initialShadingGroup
f 4/1/1 1/2/2 3/4/3
f 3/4/3 1/2/2 2/3/4
s 2
f 5/5/5 6/6/6 12/8/7
f 12/8/7 6/6/6 11/7/8
s 3
f 6/6/9 5/5/10 7/10/11
f 7/10/11 5/5/10 8/9/12
s 4
f 7/10/13 8/9/14 9/12/15
f 9/12/15 8/9/14 10/11/16
s 5
f 9/12/17 10/11/18 11/7/19
f 11/7/19 10/11/18 12/8/20
s 6
f 1/2/21 6/13/22 2/3/23
f 2/3/23 6/13/22 7/14/24
s 7
f 2/15/25 7/10/26 3/16/27
f 3/16/27 7/10/26 9/12/28
s 8
f 3/4/29 9/12/30 4/1/31
f 4/1/31 9/12/30 11/7/32
s 9
f 4/17/33 11/7/34 1/18/35
f 1/18/35 11/7/34 6/6/36
s 10
f 5/5/37 12/8/38 8/9/39
f 8/9/39 12/8/38 10/11/40
s 11
f 37/19/41 38/20/42 26/22/43
f 26/22/43 38/20/42 25/21/44
s 12
f 15/23/45 16/24/46 17/26/47
f 17/26/47 16/24/46 18/25/48
s 13
f 27/27/49 28/28/50 42/30/51
f 42/30/51 28/28/50 41/29/52
s 14
f 19/31/53 20/32/54 13/34/55
f 13/34/55 20/32/54 14/33/56
s 15
f 39/35/57 40/36/58 30/38/59
f 30/38/59 40/36/58 29/37/60
s 16
f 42/39/61 37/40/62 27/42/63
f 27/42/63 37/40/62 26/41/64
s 17
f 14/33/65 20/32/66 22/44/67
f 22/44/67 20/32/66 21/43/68
s 18
f 40/45/69 41/29/70 29/46/71
f 29/46/71 41/29/70 28/28/72
s 19
f 18/25/73 16/24/74 23/48/75
f 23/48/75 16/24/74 24/47/76
s 20
f 25/21/77 38/20/78 30/49/79
f 30/49/79 38/20/78 39/35/80
s 21
f 26/22/81 25/21/82 36/51/83
f 36/51/83 25/21/82 35/50/84
s 22
f 27/42/85 26/41/86 31/52/87
f 31/52/87 26/41/86 36/51/88
s 23
f 31/52/89 32/53/90 27/27/91
f 27/27/91 32/53/90 28/28/92
s 24
f 28/28/93 32/53/94 29/46/95
f 29/46/95 32/53/94 33/54/96
s 25
f 30/38/97 29/37/98 34/56/99
f 34/56/99 29/37/98 33/55/100
s 26
f 34/56/101 35/50/102 30/49/103
f 30/49/103 35/50/102 25/21/104
s 27
f 17/26/105 18/57/106 31/52/107
f 31/52/107 18/57/106 32/53/108
s 28
f 33/54/109 32/53/110 23/58/111
f 23/58/111 32/53/110 18/57/112
s 29
f 34/56/113 33/55/114 24/60/115
f 24/60/115 33/55/114 23/59/116
s 30
f 16/61/117 35/50/118 24/60/119
f 24/60/119 35/50/118 34/56/120
s 31
f 36/51/121 35/50/122 15/23/123
f 15/23/123 35/50/122 16/61/124
s 32
f 31/52/125 36/51/126 17/26/127
f 17/26/127 36/51/126 15/23/128
s 33
f 13/62/129 14/63/130 37/19/131
f 37/19/131 14/63/130 38/20/132
s 34
f 39/35/133 38/20/134 22/64/135
f 22/64/135 38/20/134 14/63/136
s 35
f 22/64/137 21/65/138 39/35/139
f 39/35/139 21/65/138 40/36/140
s 36
f 20/66/141 41/29/142 21/67/143
f 21/67/143 41/29/142 40/45/144
s 37
f 42/30/145 41/29/146 19/68/147
f 19/68/147 41/29/146 20/66/148
s 38
f 19/31/149 13/34/150 42/39/151
f 42/39/151 13/34/150 37/40/152
s 39
f 46/69/153 43/70/154 45/72/155
f 45/72/155 43/70/154 44/71/156
s 40
f 47/73/157 48/74/158 54/76/159
f 54/76/159 48/74/158 53/75/160
s 41
f 48/74/161 47/73/162 49/78/163
f 49/78/163 47/73/162 50/77/164
s 42
f 49/78/165 50/77/166 51/80/167
f 51/80/167 50/77/166 52/79/168
s 43
f 51/80/169 52/79/170 53/75/171
f 53/75/171 52/79/170 54/76/172
s 44
f 43/70/173 48/81/174 44/71/175
f 44/71/175 48/81/174 49/82/176
s 45
f 44/83/177 49/78/178 45/84/179
f 45/84/179 49/78/178 51/80/180
s 46
f 45/72/181 51/80/182 46/69/183
f 46/69/183 51/80/182 53/75/184
s 47
f 46/85/185 53/75/186 43/86/187
f 43/86/187 53/75/186 48/74/188
s 48
f 47/73/189 54/76/190 50/77/191
f 50/77/191 54/76/190 52/79/192
