# This file uses centimeters as units for non-parametric coordinates.

g set1 set2 tweakSet1
v -0.087402 1.796803 1.396963
v -0.174787 1.735012 1.458751
v -0.087402 1.796803 1.520540
v -0.087401 0.276251 -0.123592
v -0.174787 0.214462 -0.061802
v -0.087401 1.673201 1.644144
v -0.174787 1.611410 1.582355
v -0.087401 1.549620 1.644146
v -0.087401 0.029066 0.123594
v -0.174787 0.090857 0.061806
v 0.087400 1.673199 1.644145
v 0.087400 1.549620 1.644146
v 0.174786 1.611410 1.582355
v 0.174786 0.090857 0.061806
v 0.087400 0.029066 0.123594
v 0.087402 1.796803 1.520540
v 0.174786 1.735012 1.458751
v 0.087402 1.796803 1.396963
v 0.087400 0.276251 -0.123592
v 0.174786 0.214462 -0.061802
v -1.018935 0.343180 -2.019011
v -1.018935 0.000002 -2.019011
v -1.018935 0.343180 2.019011
v -1.018935 0.000002 2.019011
v 1.018935 0.343180 2.019011
v 1.018935 0.000002 2.019011
v 1.018935 0.343180 -2.019011
v 1.018935 0.000002 -2.019011
vt 0.897073 0.823672
vt 0.897044 0.792139
vt 0.942706 0.791052
vt 0.944195 0.817980
vt 0.864680 0.796978
vt 0.898890 0.222123
vt 0.945993 0.222545
vt 0.974494 0.797724
vt 0.959251 0.858856
vt 0.909963 0.871359
vt 0.865912 0.222031
vt 0.979272 0.222956
vt 0.990701 0.843873
vt 0.328165 0.405854
vt 0.596420 0.405854
vt 0.596420 0.937398
vt 0.328165 0.937398
vt 0.014736 0.405854
vt 0.282991 0.405854
vt 0.282991 0.937398
vt 0.014736 0.937398
vt 0.786055 0.792092
vt 0.790741 0.822361
vt 0.737323 0.822686
vt 0.740164 0.792451
vt 0.818084 0.796814
vt 0.707673 0.796761
vt 0.739045 0.221804
vt 0.786039 0.221797
vt 0.819258 0.221883
vt 0.848408 0.832435
vt 0.823526 0.855390
vt 0.706067 0.221984
vt 0.328165 0.982573
vt 0.596420 0.982573
vt 0.596420 0.360680
vt 0.328165 0.360680
vt 0.661057 0.796987
vt 0.659435 0.222225
vt 0.641594 0.937398
vt 0.641594 0.405854
vt 0.705597 0.128747
vt 0.729021 0.151937
vt 0.729257 0.198560
vt 0.636011 0.199033
vt 0.635779 0.152408
vt 0.658970 0.128982
vn -0.000008 -0.707112 -0.707101
vn -0.000001 -0.707114 -0.707100
vn -0.000000 -0.707110 -0.707103
vn 0.000002 -0.707115 -0.707098
vn 0.000001 -0.707114 -0.707100
vn 0.000000 -0.707109 -0.707105
vn -0.000000 -0.707096 -0.707118
vn -0.000000 -0.707096 -0.707118
vn -0.000000 1.000000 0.000000
vn -0.000000 1.000000 0.000000
vn -0.000000 1.000000 0.000000
vn -0.000000 1.000000 0.000000
vn -0.707102 0.500004 -0.500003
vn -0.707102 0.500004 -0.500003
vn -0.707100 0.500005 -0.500004
vn -0.707100 0.500005 -0.500004
vn -0.707107 0.500001 0.499999
vn -0.707104 0.500005 0.499999
vn -0.707102 0.500007 0.499999
vn -0.707100 0.500010 0.500000
vn -0.000005 0.000015 1.000000
vn -0.000003 0.000012 1.000000
vn -0.000002 0.000011 1.000000
vn 0.000000 0.000008 1.000000
vn -0.707106 -0.500001 0.500001
vn -0.707105 -0.500001 0.500001
vn -0.707100 -0.500004 0.500005
vn -0.707100 -0.500004 0.500005
vn 0.707097 0.500003 0.500010
vn 0.707103 0.500003 0.500003
vn 0.707106 0.500003 0.499998
vn 0.707111 0.500003 0.499990
vn 0.707106 -0.500000 0.500001
vn 0.707106 -0.500000 0.500001
vn 0.707100 -0.500004 0.500005
vn 0.707100 -0.500005 0.500005
vn 0.707105 0.500001 -0.500001
vn 0.707105 0.500001 -0.500001
vn 0.707101 0.500005 -0.500004
vn 0.707100 0.500005 -0.500004
vn -1.000000 0.000000 0.000000
vn -1.000000 0.000000 0.000000
vn -1.000000 0.000000 0.000000
vn -1.000000 -0.000000 0.000000
vn 0.000000 -0.707106 0.707107
vn 0.000000 -0.707106 0.707107
vn 0.000000 -0.707106 0.707107
vn 0.000000 -0.707106 0.707107
vn 1.000000 0.000000 -0.000000
vn 1.000000 0.000000 -0.000000
vn 1.000000 0.000000 -0.000000
vn 1.000000 0.000000 -0.000000
vn -0.000000 0.707108 -0.707106
vn -0.000000 0.707108 -0.707106
vn -0.000000 0.707108 -0.707106
vn -0.000000 0.707108 -0.707106
vn -0.000000 0.707109 0.707105
vn 0.000002 0.707111 0.707103
vn 0.000002 0.707111 0.707103
vn 0.000003 0.707113 0.707100
vn -0.577354 0.816494 0.000000
vn -0.577354 0.816494 0.000000
vn -0.577354 0.816494 0.000000
vn -0.577344 0.000013 0.816501
vn -0.577344 0.000013 0.816501
vn -0.577343 0.000013 0.816501
vn 0.577345 0.000006 0.816500
vn 0.577345 0.000006 0.816500
vn 0.577345 0.000006 0.816500
vn 0.577358 0.816491 -0.000000
vn 0.577358 0.816491 -0.000000
vn 0.577358 0.816491 -0.000000
vn -1.000000 -0.000000 0.000000
vn -1.000000 -0.000000 0.000000
vn -1.000000 -0.000000 0.000000
vn -1.000000 -0.000000 0.000000
vn 0.000000 0.000000 1.000000
vn 0.000000 0.000000 1.000000
vn 0.000000 0.000000 1.000000
vn 0.000000 0.000000 1.000000
vn 1.000000 0.000000 -0.000000
vn 1.000000 0.000000 -0.000000
vn 1.000000 0.000000 -0.000000
vn 1.000000 0.000000 -0.000000
vn -0.000000 -0.000000 -1.000000
vn -0.000000 -0.000000 -1.000000
vn -0.000000 -0.000000 -1.000000
vn -0.000000 -0.000000 -1.000000
vn 0.000000 -1.000000 -0.000000
vn 0.000000 -1.000000 -0.000000
vn 0.000000 -1.000000 -0.000000
vn 0.000000 -1.000000 -0.000000
vn -0.000000 1.000000 0.000000
vn -0.000000 1.000000 0.000000
vn -0.000000 1.000000 0.000000
vn -0.000000 1.000000 0.000000
s 1
g Lever_Up
f 5/42/1 4/43/2 10/47/3
f 4/43/2 19/44/4 10/47/3
f 19/44/4 20/33/5 10/47/3
f 20/33/5 14/39/6 10/47/3
f 14/39/6 15/45/7 10/47/3
f 15/45/7 9/46/8 10/47/3
s 2
f 1/22/9 3/23/10 18/25/11
f 18/25/11 3/23/10 16/24/12
s 3
f 2/26/13 1/22/14 5/30/15
f 5/30/15 1/22/14 4/29/16
s 4
f 3/23/17 2/26/18 6/32/19
f 6/32/19 2/26/18 7/31/20
s 5
f 6/1/21 8/2/22 11/4/23
f 11/4/23 8/2/22 12/3/24
s 6
f 8/2/25 7/5/26 9/6/27
f 9/6/27 7/5/26 10/11/28
s 7
f 11/4/29 13/8/30 16/9/31
f 16/9/31 13/8/30 17/13/32
s 8
f 13/8/33 12/3/34 14/12/35
f 14/12/35 12/3/34 15/7/36
s 9
f 18/25/37 17/27/38 19/28/39
f 19/28/39 17/27/38 20/33/40
s 10
f 2/26/41 5/30/42 7/5/43
f 7/5/43 5/30/42 10/11/44
s 11
f 8/2/45 9/6/46 12/3/47
f 12/3/47 9/6/46 15/7/48
s 12
f 13/38/49 14/39/50 17/27/51
f 17/27/51 14/39/50 20/33/52
s 13
f 18/25/53 19/28/54 1/22/55
f 1/22/55 19/28/54 4/29/56
s 14
f 16/9/57 3/10/58 11/4/59
f 11/4/59 3/10/58 6/1/60
s off
f 1/22/61 2/26/62 3/23/63
f 6/1/64 7/5/65 8/2/66
f 11/4/67 12/3/68 13/8/69
f 16/24/70 17/27/71 18/25/72
s 15
f 21/19/73 22/14/74 23/20/75
f 23/20/75 22/14/74 24/17/76
s 16
f 23/34/77 24/17/78 25/35/79
f 25/35/79 24/17/78 26/16/80
s 17
f 25/40/81 26/16/82 27/41/83
f 27/41/83 26/16/82 28/15/84
s 18
f 27/36/85 28/15/86 21/37/87
f 21/37/87 28/15/86 22/14/88
s 19
f 22/14/89 28/15/90 24/17/91
f 24/17/91 28/15/90 26/16/92
s 20
f 27/18/93 21/19/94 25/21/95
f 25/21/95 21/19/94 23/20/96
