# This file uses centimeters as units for non-parametric coordinates.

g set1 tweakSet1
v -0.087402 -1.796803 -1.396963
v -0.174787 -1.735012 -1.458751
v -0.087402 -1.796803 -1.520540
v -0.087401 -0.276251 0.123592
v -0.174787 -0.214462 0.061802
v -0.087401 -1.673201 -1.644144
v -0.174787 -1.611410 -1.582355
v -0.087401 -1.549620 -1.644146
v -0.087401 -0.029066 -0.123594
v -0.174787 -0.090857 -0.061806
v 0.087400 -1.673199 -1.644145
v 0.087400 -1.549620 -1.644146
v 0.174786 -1.611410 -1.582355
v 0.174786 -0.090857 -0.061806
v 0.087400 -0.029066 -0.123594
v 0.087402 -1.796803 -1.520540
v 0.174786 -1.735012 -1.458751
v 0.087402 -1.796803 -1.396963
v 0.087400 -0.276251 0.123592
v 0.174786 -0.214462 0.061802
v -1.018935 -0.343180 2.019011
v -1.018935 -0.000002 2.019011
v -1.018935 -0.343180 -2.019011
v -1.018935 -0.000002 -2.019011
v 1.018935 -0.343180 -2.019011
v 1.018935 -0.000002 -2.019011
v 1.018935 -0.343180 2.019011
v 1.018935 -0.000002 2.019011
vt 0.687494 0.000000
vt 0.812506 0.000000
vt 0.875000 0.062494
vt 0.875000 0.187507
vt 0.812506 0.250000
vt 0.687494 0.250000
vt 0.384763 0.937507
vt 0.375000 0.937507
vt 0.375000 0.812493
vt 0.384763 0.000001
vt 0.625000 0.062494
vt 0.384763 0.062494
vt 0.375000 0.312494
vt 0.375000 0.437506
vt 0.384762 0.187506
vt 0.625000 0.312494
vt 0.375000 0.562493
vt 0.375000 0.687506
vt 0.384762 0.437506
vt 0.625000 0.562493
vt 0.384763 0.687506
vt 0.625000 0.812494
vt 0.625000 0.187507
vt 0.384762 0.312494
vt 0.625000 0.437506
vt 0.384762 0.562494
vt 0.625000 0.687506
vt 0.384763 0.812493
vt 0.625000 0.937506
vt 0.187493 0.062494
vt 0.312507 0.062494
vt 0.312506 0.187506
vt 0.187494 0.187507
vt 0.375000 0.000000
vt 0.625000 0.000000
vt 0.625000 0.250000
vt 0.375000 0.250000
vt 0.625000 0.500000
vt 0.375000 0.500000
vt 0.625000 0.750000
vt 0.375000 0.750000
vt 0.625000 1.000000
vt 0.375000 1.000000
vt 0.875000 0.000000
vt 0.875000 0.250000
vt 0.125000 0.000000
vt 0.125000 0.250000
vn -0.000008 0.707112 0.707101
vn -0.000001 0.707114 0.707100
vn -0.000000 0.707110 0.707103
vn 0.000002 0.707115 0.707098
vn 0.000001 0.707114 0.707100
vn 0.000000 0.707109 0.707105
vn 0.000000 0.707096 0.707118
vn 0.000000 0.707096 0.707118
vn -0.000000 -1.000000 -0.000000
vn -0.000000 -1.000000 -0.000000
vn -0.000000 -1.000000 -0.000000
vn -0.000000 -1.000000 -0.000000
vn -0.707102 -0.500004 0.500003
vn -0.707102 -0.500004 0.500003
vn -0.707100 -0.500005 0.500004
vn -0.707100 -0.500005 0.500004
vn -0.707107 -0.500001 -0.499999
vn -0.707104 -0.500005 -0.499999
vn -0.707102 -0.500007 -0.499999
vn -0.707100 -0.500010 -0.500000
vn -0.000005 -0.000015 -1.000000
vn -0.000003 -0.000012 -1.000000
vn -0.000002 -0.000011 -1.000000
vn 0.000000 -0.000008 -1.000000
vn -0.707106 0.500001 -0.500001
vn -0.707105 0.500001 -0.500001
vn -0.707100 0.500004 -0.500005
vn -0.707100 0.500004 -0.500005
vn 0.707097 -0.500003 -0.500010
vn 0.707103 -0.500003 -0.500003
vn 0.707106 -0.500003 -0.499998
vn 0.707111 -0.500003 -0.499990
vn 0.707106 0.500000 -0.500001
vn 0.707106 0.500000 -0.500001
vn 0.707100 0.500004 -0.500005
vn 0.707100 0.500005 -0.500005
vn 0.707105 -0.500001 0.500001
vn 0.707105 -0.500001 0.500001
vn 0.707101 -0.500005 0.500004
vn 0.707100 -0.500005 0.500004
vn -1.000000 -0.000000 -0.000000
vn -1.000000 -0.000000 -0.000000
vn -1.000000 -0.000000 -0.000000
vn -1.000000 0.000000 -0.000000
vn 0.000000 0.707106 -0.707107
vn 0.000000 0.707106 -0.707107
vn 0.000000 0.707106 -0.707107
vn 0.000000 0.707106 -0.707107
vn 1.000000 -0.000000 0.000000
vn 1.000000 -0.000000 0.000000
vn 1.000000 -0.000000 0.000000
vn 1.000000 -0.000000 0.000000
vn -0.000000 -0.707108 0.707106
vn -0.000000 -0.707108 0.707106
vn -0.000000 -0.707108 0.707106
vn -0.000000 -0.707108 0.707106
vn -0.000000 -0.707109 -0.707105
vn 0.000002 -0.707111 -0.707103
vn 0.000002 -0.707111 -0.707103
vn 0.000003 -0.707113 -0.707100
vn -0.577354 -0.816494 -0.000000
vn -0.577354 -0.816494 -0.000000
vn -0.577354 -0.816494 -0.000000
vn -0.577344 -0.000013 -0.816501
vn -0.577344 -0.000013 -0.816501
vn -0.577343 -0.000013 -0.816501
vn 0.577345 -0.000006 -0.816500
vn 0.577345 -0.000006 -0.816500
vn 0.577345 -0.000006 -0.816500
vn 0.577358 -0.816491 0.000000
vn 0.577358 -0.816491 0.000000
vn 0.577358 -0.816491 0.000000
vn -1.000000 0.000000 -0.000000
vn -1.000000 0.000000 -0.000000
vn -1.000000 0.000000 -0.000000
vn -1.000000 0.000000 -0.000000
vn 0.000000 -0.000000 -1.000000
vn 0.000000 -0.000000 -1.000000
vn 0.000000 -0.000000 -1.000000
vn 0.000000 -0.000000 -1.000000
vn 1.000000 -0.000000 0.000000
vn 1.000000 -0.000000 0.000000
vn 1.000000 -0.000000 0.000000
vn 1.000000 -0.000000 0.000000
vn -0.000000 0.000000 1.000000
vn -0.000000 0.000000 1.000000
vn -0.000000 0.000000 1.000000
vn -0.000000 0.000000 1.000000
vn 0.000000 1.000000 0.000000
vn 0.000000 1.000000 0.000000
vn 0.000000 1.000000 0.000000
vn 0.000000 1.000000 0.000000
vn -0.000000 -1.000000 -0.000000
vn -0.000000 -1.000000 -0.000000
vn -0.000000 -1.000000 -0.000000
vn -0.000000 -1.000000 -0.000000
s 1
g Lever_Up
f 5/11/1 4/1/2 10/23/3
f 4/1/2 19/2/4 10/23/3
f 19/2/4 20/3/5 10/23/3
f 20/3/5 14/4/6 10/23/3
f 14/4/6 15/5/7 10/23/3
f 15/5/7 9/6/8 10/23/3
s 2
f 1/7/9 3/8/10 18/28/11
f 18/28/11 3/8/10 16/9/12
s 3
f 2/12/13 1/10/14 5/11/15
f 5/11/15 1/10/14 4/1/16
s 4
f 3/31/17 2/12/18 6/32/19
f 6/32/19 2/12/18 7/15/20
s 5
f 6/13/21 8/24/22 11/14/23
f 11/14/23 8/24/22 12/19/24
s 6
f 8/24/25 7/15/26 9/16/27
f 9/16/27 7/15/26 10/23/28
s 7
f 11/17/29 13/26/30 16/18/31
f 16/18/31 13/26/30 17/21/32
s 8
f 13/26/33 12/19/34 14/20/35
f 14/20/35 12/19/34 15/25/36
s 9
f 18/28/37 17/21/38 19/22/39
f 19/22/39 17/21/38 20/27/40
s 10
f 2/12/41 5/11/42 7/15/43
f 7/15/43 5/11/42 10/23/44
s 11
f 8/24/45 9/16/46 12/19/47
f 12/19/47 9/16/46 15/25/48
s 12
f 13/26/49 14/20/50 17/21/51
f 17/21/51 14/20/50 20/27/52
s 13
f 18/28/53 19/22/54 1/7/55
f 1/7/55 19/22/54 4/29/56
s 14
f 16/30/57 3/31/58 11/33/59
f 11/33/59 3/31/58 6/32/60
s off
f 1/10/61 2/12/62 3/31/63
f 6/32/64 7/15/65 8/24/66
f 11/14/67 12/19/68 13/26/69
f 16/18/70 17/21/71 18/28/72
s 15
f 21/34/73 22/35/74 23/37/75
f 23/37/75 22/35/74 24/36/76
s 16
f 23/37/77 24/36/78 25/39/79
f 25/39/79 24/36/78 26/38/80
s 17
f 25/39/81 26/38/82 27/41/83
f 27/41/83 26/38/82 28/40/84
s 18
f 27/41/85 28/40/86 21/43/87
f 21/43/87 28/40/86 22/42/88
s 19
f 22/35/89 28/44/90 24/36/91
f 24/36/91 28/44/90 26/45/92
s 20
f 27/46/93 21/34/94 25/47/95
f 25/47/95 21/34/94 23/37/96
