# This file uses centimeters as units for non-parametric coordinates.

g default
v -1.027969 -3.490103 -7.374142
v -2.027969 -3.490103 -7.374142
v -1.027969 -3.490103 -7.903767
v -2.027969 -3.490103 -7.903767
v -1.027969 -3.000227 -7.903767
v -2.027969 -3.000227 -7.903767
v -1.027969 -3.000227 -7.374142
v -2.027969 -3.000227 -7.374142
v 1.791590 -3.490103 -7.374142
v 0.791590 -3.490103 -7.374142
v 1.791590 -3.490103 -7.903767
v 0.791590 -3.490103 -7.903767
v 1.791590 -3.000227 -7.903767
v 0.791590 -3.000227 -7.903767
v 1.791590 -3.000227 -7.374142
v 0.791590 -3.000227 -7.374142
v 4.831861 -2.670897 -0.000000
v -4.831861 -2.670897 0.000000
v 4.831861 -2.670897 -13.916712
v -4.831861 -2.670897 -13.916712
v 4.831861 2.670897 -13.916712
v -4.831861 2.670897 -13.916712
v 4.831861 2.670897 -0.000000
v -4.831861 2.670897 0.000000
v -0.000000 -2.670897 -13.916712
v -0.000000 2.670897 -13.916712
v 0.000000 2.670897 0.000000
v 0.000000 -2.670897 -0.000000
v 4.431861 -3.047552 -0.399998
v 0.000000 -3.047552 -0.399998
v -0.000000 -3.047552 -13.516714
v 4.431861 -3.047552 -13.516714
v -4.431862 -3.047552 -0.399998
v -4.431862 -3.047552 -13.516714
vt 0.932913 0.877842
vt 0.932913 0.917590
vt 0.889939 0.917590
vt 0.889940 0.877842
vt 0.765826 0.917586
vt 0.765827 0.877838
vt 0.808800 0.877839
vt 0.808799 0.917587
vt 0.932912 0.877838
vt 0.932913 0.917586
vt 0.889939 0.917588
vt 0.889938 0.877839
vt 0.765826 0.917591
vt 0.765825 0.877842
vt 0.808798 0.877842
vt 0.808799 0.917590
vt 0.986673 0.042176
vt 0.986673 0.277433
vt 0.373771 0.277432
vt 0.373771 0.042176
vt 0.391387 0.025588
vt 0.969057 0.025588
vt 0.373771 0.277432
vt 0.373771 0.042176
vt 0.986673 0.042176
vt 0.986673 0.277432
vt 0.391387 0.025588
vt 0.969057 0.025588
vt 0.684686 0.917584
vt 0.684687 0.877836
vt 0.684686 0.917591
vt 0.684686 0.877842
vt 0.622506 0.959808
vt 0.320088 0.959808
vt 0.320088 0.625474
vt 0.622506 0.625474
vt 0.597471 0.983382
vt 0.320088 0.983382
vt 0.017670 0.959808
vt 0.017670 0.625474
vt 0.042705 0.983382
vt 0.017670 0.625474
vt 0.320088 0.625474
vt 0.320088 0.959808
vt 0.017670 0.959808
vt 0.622506 0.625474
vt 0.622507 0.959808
vt 0.320088 0.983382
vt 0.042705 0.983382
vt 0.597471 0.983382
vt 0.808801 0.834866
vt 0.889941 0.834868
vt 0.808797 0.834868
vt 0.889937 0.834866
vt 0.644182 0.307216
vt 0.806868 0.307216
vt 0.806868 0.788708
vt 0.644182 0.788708
vt 0.969553 0.307216
vt 0.969553 0.788708
vt 0.001830 0.001992
vt 0.179199 0.001992
vt 0.179199 0.512850
vt 0.001830 0.512850
vt 0.356568 0.001992
vt 0.356568 0.512850
vn -0.000000 -1.000000 -0.000000
vn -0.000000 -1.000000 -0.000000
vn -0.000000 -1.000000 -0.000000
vn -0.000000 -1.000000 -0.000000
vn -0.000000 0.000000 -1.000000
vn -0.000000 0.000000 -1.000000
vn -0.000000 0.000000 -1.000000
vn -0.000000 0.000000 -1.000000
vn 0.000000 -0.000000 1.000000
vn 0.000000 -0.000000 1.000000
vn 0.000000 -0.000000 1.000000
vn 0.000000 -0.000000 1.000000
vn -1.000000 0.000000 0.000000
vn -1.000000 0.000000 0.000000
vn -1.000000 0.000000 0.000000
vn -1.000000 0.000000 0.000000
vn 1.000000 -0.000000 -0.000000
vn 1.000000 -0.000000 -0.000000
vn 1.000000 -0.000000 -0.000000
vn 1.000000 -0.000000 -0.000000
vn -0.000000 -1.000000 -0.000000
vn -0.000000 -1.000000 -0.000000
vn -0.000000 -1.000000 -0.000000
vn -0.000000 -1.000000 -0.000000
vn -0.000000 0.000000 -1.000000
vn -0.000000 0.000000 -1.000000
vn -0.000000 0.000000 -1.000000
vn -0.000000 0.000000 -1.000000
vn 0.000000 -0.000000 1.000000
vn 0.000000 -0.000000 1.000000
vn 0.000000 -0.000000 1.000000
vn 0.000000 -0.000000 1.000000
vn -1.000000 0.000000 0.000000
vn -1.000000 0.000000 0.000000
vn -1.000000 0.000000 0.000000
vn -1.000000 0.000000 0.000000
vn 1.000000 -0.000000 -0.000000
vn 1.000000 -0.000000 -0.000000
vn 1.000000 -0.000000 -0.000000
vn 1.000000 -0.000000 -0.000000
vn -0.000000 -1.000000 -0.000000
vn -0.000000 -1.000000 -0.000000
vn -0.000000 -1.000000 -0.000000
vn -0.000000 -1.000000 -0.000000
vn -0.000000 0.000000 -1.000000
vn -0.000000 0.000000 -1.000000
vn -0.000000 0.000000 -1.000000
vn -0.000000 0.000000 -1.000000
vn 0.000000 1.000000 0.000000
vn 0.000000 1.000000 0.000000
vn 0.000000 1.000000 0.000000
vn 0.000000 1.000000 0.000000
vn 0.000000 -0.000000 1.000000
vn 0.000000 -0.000000 1.000000
vn 0.000000 -0.000000 1.000000
vn 0.000000 -0.000000 1.000000
vn -1.000000 0.000000 0.000000
vn -1.000000 0.000000 0.000000
vn -1.000000 0.000000 0.000000
vn -1.000000 0.000000 0.000000
vn 1.000000 -0.000000 -0.000000
vn 1.000000 -0.000000 -0.000000
vn 1.000000 -0.000000 -0.000000
vn 1.000000 -0.000000 -0.000000
vn -0.000000 0.000000 -1.000000
vn -0.000000 0.000000 -1.000000
vn 0.000000 1.000000 0.000000
vn 0.000000 1.000000 0.000000
vn 0.000000 -0.000000 1.000000
vn 0.000000 -0.000000 1.000000
vn -0.000000 -1.000000 -0.000000
vn -0.000000 -1.000000 -0.000000
vn 0.000000 -0.728030 0.685546
vn 0.000000 -0.728030 0.685545
vn 0.000000 -0.728030 0.685546
vn 0.000000 -0.728030 0.685545
vn -0.000000 -0.728031 -0.685544
vn -0.000000 -0.728031 -0.685544
vn -0.000000 -0.728030 -0.685545
vn -0.000000 -0.728030 -0.685545
vn 0.685546 -0.728030 -0.000000
vn 0.685539 -0.728036 -0.000000
vn 0.685546 -0.728030 -0.000000
vn 0.685539 -0.728036 -0.000000
vn 0.000000 -0.728031 0.685544
vn 0.000000 -0.728031 0.685544
vn -0.685546 -0.728029 0.000000
vn -0.685540 -0.728035 0.000000
vn -0.685546 -0.728029 0.000000
vn -0.685540 -0.728035 0.000000
vn -0.000000 -0.728030 -0.685546
vn -0.000000 -0.728030 -0.685545
s 1
g Locker
f 1/51/1 2/52/2 3/7/3
f 3/7/3 2/52/2 4/4/4
s 2
f 3/7/5 4/4/6 5/8/7
f 5/8/7 4/4/6 6/3/8
s 3
f 7/5/9 8/29/10 1/6/11
f 1/6/11 8/29/10 2/30/12
s 4
f 2/1/13 8/2/14 4/4/15
f 4/4/15 8/2/14 6/3/16
s 5
f 7/5/17 1/6/18 5/8/19
f 5/8/19 1/6/18 3/7/20
s 6
f 9/53/21 10/54/22 11/15/23
f 11/15/23 10/54/22 12/12/24
s 7
f 11/15/25 12/12/26 13/16/27
f 13/16/27 12/12/26 14/11/28
s 8
f 15/13/29 16/31/30 9/14/31
f 9/14/31 16/31/30 10/32/32
s 9
f 10/9/33 16/10/34 12/12/35
f 12/12/35 16/10/34 14/11/36
s 10
f 15/13/37 9/14/38 13/16/39
f 13/16/39 9/14/38 11/15/40
s 11
f 29/55/41 30/56/42 32/58/43
f 32/58/43 30/56/42 31/57/44
s 12
f 19/33/45 25/34/46 21/36/47
f 21/36/47 25/34/46 26/35/48
s 13
f 21/61/49 26/62/50 23/64/51
f 23/64/51 26/62/50 27/63/52
s 14
f 23/42/53 27/43/54 17/45/55
f 17/45/55 27/43/54 28/44/56
s 15
f 18/17/57 24/18/58 20/20/59
f 20/20/59 24/18/58 22/19/60
s 16
f 23/23/61 17/24/62 21/26/63
f 21/26/63 17/24/62 19/25/64
s 12
f 25/34/46 20/39/65 26/35/48
f 26/35/48 20/39/65 22/40/66
s 13
f 27/63/52 26/62/50 24/66/67
f 24/66/67 26/62/50 22/65/68
s 14
f 28/44/56 27/43/54 18/47/69
f 18/47/69 27/43/54 24/46/70
s 11
f 31/57/44 30/56/42 34/60/71
f 34/60/71 30/56/42 33/59/72
s 17
f 17/45/73 28/44/74 29/49/75
f 29/49/75 28/44/74 30/48/76
s 18
f 19/33/77 32/37/78 25/34/79
f 25/34/79 32/37/78 31/38/80
s 19
f 19/25/81 17/24/82 32/28/83
f 32/28/83 17/24/82 29/27/84
s 17
f 18/47/85 33/50/86 28/44/74
f 28/44/74 33/50/86 30/48/76
s 20
f 18/17/87 20/20/88 33/22/89
f 33/22/89 20/20/88 34/21/90
s 18
f 20/39/91 25/34/79 34/41/92
f 34/41/92 25/34/79 31/38/80
