# This file uses centimeters as units for non-parametric coordinates.

mtllib roomLarge.mtl
g default
v -30.000000 -29.990742 -30.000000
v 30.000000 -29.990742 -30.000000
v -30.000000 -29.990742 30.000000
v 30.000000 -29.990742 30.000000
v -30.000000 30.009258 30.000004
v 30.000000 30.009258 30.000000
v -30.000000 30.009258 -30.000000
v 30.000000 30.009258 -30.000000
v 30.000000 8.764757 30.000000
v -30.000000 8.764757 30.000000
v -30.000004 8.764757 -30.000000
v 30.000004 8.764757 -30.000000
v 30.000000 -8.746247 30.000000
v -30.000000 -8.746247 30.000000
v -30.000004 -8.746247 -30.000000
v 30.000004 -8.746247 -30.000000
v 8.770570 30.009261 30.000000
v 8.770571 30.009261 -30.000000
v 8.770571 8.764757 -30.000000
v 8.770571 -8.746247 -30.000000
v 8.770570 -29.990746 30.000000
v 8.770570 -8.746247 30.000000
v 8.770570 8.764757 30.000000
v -8.770573 30.009261 30.000000
v -8.770573 30.009261 -30.000000
v -8.770571 8.764757 -30.000000
v -8.770571 -8.746247 -30.000000
v -8.770573 -29.990746 30.000000
v -8.770573 -8.746247 30.000000
v -8.770573 8.764757 30.000000
v 30.000004 -8.746247 -5.689597
v 30.000000 -29.990742 -5.689597
v -30.000000 -29.990742 -5.689597
v -30.000004 -8.746247 -5.689597
v -30.000004 8.764757 -5.689597
v -30.000000 30.009258 -5.689597
v -8.770573 30.009261 -5.689595
v 8.770571 30.009261 -5.689595
v 30.000000 30.009258 -5.689597
v 30.000004 8.764757 -5.689597
v -8.770573 -29.990753 -30.000000
v -8.770573 -29.990753 -5.689595
v 8.770571 -29.990753 -5.689595
v 8.770571 -29.990753 -30.000000
vt 0.001891 0.331473
vt 0.001891 0.090267
vt 0.079790 0.331473
vt 0.079790 0.331473
vt 0.079790 0.090267
vt 0.338706 0.331471
vt 0.338706 0.255318
vt 0.416605 0.331471
vt 0.416605 0.255318
vt 0.617662 0.576465
vt 0.617662 0.335259
vt 0.695561 0.576465
vt 0.695561 0.335259
vt 0.358514 0.664741
vt 0.282361 0.664741
vt 0.358514 0.586841
vt 0.282361 0.586841
vt 0.331370 0.668529
vt 0.331370 0.909735
vt 0.255217 0.668529
vt 0.255217 0.909735
vt 0.414858 0.668529
vt 0.414858 0.909735
vt 0.338706 0.668529
vt 0.338706 0.909735
vt 0.338706 0.078145
vt 0.338706 0.001992
vt 0.416605 0.078145
vt 0.416605 0.001992
vt 0.668184 0.668529
vt 0.668184 0.909735
vt 0.592032 0.668529
vt 0.592032 0.909735
vt 0.611839 0.664741
vt 0.535687 0.664741
vt 0.611839 0.586841
vt 0.535687 0.586841
vt 0.078044 0.909735
vt 0.001891 0.909735
vt 0.078044 0.668529
vt 0.001891 0.668529
vt 0.869242 0.576465
vt 0.869242 0.335259
vt 0.947141 0.576465
vt 0.947141 0.335259
vt 0.535687 0.413162
vt 0.535687 0.335261
vt 0.611839 0.413162
vt 0.611839 0.335261
vt 0.358514 0.413162
vt 0.358514 0.335261
vt 0.282361 0.413162
vt 0.282361 0.335261
vt 0.253470 0.090267
vt 0.331370 0.090267
vt 0.253470 0.331473
vt 0.253470 0.331473
vt 0.331370 0.331473
vt 0.590286 0.255318
vt 0.668185 0.255318
vt 0.590286 0.331471
vt 0.668185 0.331471
vt 0.590286 0.078145
vt 0.668185 0.078145
vt 0.590286 0.001992
vt 0.668185 0.001992
vt 0.282361 0.586841
vt 0.282361 0.413162
vt 0.331370 0.998008
vt 0.255217 0.998008
vt 0.253470 0.001992
vt 0.331370 0.001992
vt 0.253470 0.090267
vt 0.079790 0.001992
vt 0.079790 0.090267
vt 0.001891 0.001992
vt 0.414858 0.998008
vt 0.338706 0.998008
vt 0.592032 0.998008
vt 0.668184 0.998008
vt 0.617662 0.664738
vt 0.695561 0.664738
vt 0.869242 0.664738
vt 0.947141 0.664738
vt 0.078044 0.998008
vt 0.001891 0.998008
vn 0.000001 1.000000 0.000000
vn 0.000001 1.000000 0.000000
vn 0.000001 1.000000 0.000000
vn 0.000000 1.000000 -0.000000
vn 0.000000 0.000000 -1.000000
vn 0.000000 0.000000 -1.000000
vn 0.000000 0.000000 -1.000000
vn 0.000000 0.000000 -1.000000
vn 0.000000 -1.000000 -0.000000
vn 0.000000 -1.000000 -0.000000
vn 0.000000 -1.000000 -0.000000
vn 0.000000 -1.000000 -0.000000
vn 0.000000 -0.000000 1.000000
vn 0.000000 -0.000000 1.000000
vn 0.000000 -0.000000 1.000000
vn 0.000000 -0.000000 1.000000
vn -1.000000 0.000000 0.000000
vn -1.000000 0.000000 0.000000
vn -1.000000 0.000000 0.000000
vn -1.000000 0.000000 -0.000000
vn 1.000000 0.000000 0.000000
vn 1.000000 0.000000 -0.000000
vn 1.000000 0.000000 0.000000
vn 1.000000 0.000000 0.000000
vn 0.000000 0.000000 -1.000000
vn -0.000000 0.000000 -1.000000
vn -0.000000 0.000000 -1.000000
vn -0.000000 0.000000 -1.000000
vn 1.000000 -0.000000 -0.000000
vn 1.000000 -0.000000 -0.000000
vn 1.000000 -0.000000 -0.000000
vn 1.000000 -0.000000 -0.000000
vn 0.000000 -0.000000 1.000000
vn 0.000000 -0.000000 1.000000
vn 0.000000 -0.000000 1.000000
vn 0.000000 -0.000000 1.000000
vn -1.000000 -0.000000 -0.000000
vn -1.000000 -0.000000 -0.000000
vn -1.000000 -0.000000 -0.000000
vn -1.000000 -0.000000 -0.000000
vn -0.000000 -1.000000 -0.000000
vn -0.000000 -1.000000 -0.000000
vn -0.000000 -1.000000 -0.000000
vn 0.000000 -1.000000 -0.000000
vn 0.000000 -0.000000 1.000000
vn 0.000000 -0.000000 1.000000
vn 0.000000 -0.000000 1.000000
vn 0.000000 -0.000000 1.000000
vn 0.000000 -0.000000 1.000000
vn 0.000000 -0.000000 1.000000
vn 0.000000 -0.000000 1.000000
vn 0.000000 -0.000000 1.000000
vn -0.000000 1.000000 -0.000000
vn -0.000001 1.000000 0.000000
vn -0.000001 1.000000 0.000000
vn -0.000001 1.000000 0.000000
vn 0.000000 0.000000 -1.000000
vn 0.000000 0.000000 -1.000000
vn 0.000000 0.000000 -1.000000
vn 0.000000 0.000000 -1.000000
vn 0.000000 0.000000 -1.000000
vn 0.000000 0.000000 -1.000000
vn 0.000000 0.000000 -1.000000
vn 0.000000 0.000000 -1.000000
vn -1.000000 0.000000 0.000000
vn -1.000000 0.000000 0.000000
vn 0.000000 1.000000 -0.000000
vn -0.000000 1.000000 -0.000000
vn 0.000000 1.000000 -0.000000
vn 0.000000 1.000000 -0.000000
vn 1.000000 0.000000 0.000000
vn 1.000000 -0.000000 0.000000
vn 1.000000 0.000000 -0.000000
vn 1.000000 -0.000000 -0.000000
vn -0.000000 -1.000000 -0.000000
vn -0.000000 -1.000000 -0.000000
vn -0.000000 -1.000000 -0.000000
vn -0.000000 -1.000000 -0.000000
vn -1.000000 0.000000 -0.000000
vn -1.000000 -0.000000 -0.000000
s 1
g Room
usemtl initialShadingGroup
f 1/1/1 33/2/2 41/3/3
f 41/4/3 33/2/2 42/5/4
s 2
f 3/6/5 14/7/6 28/8/7
f 28/8/7 14/7/6 29/9/8
s 3
f 36/10/9 7/11/10 37/12/11
f 37/12/11 7/11/10 25/13/12
s 4
f 15/14/13 1/15/14 27/16/15
f 27/16/15 1/15/14 41/17/16
s 5
f 2/18/17 32/19/18 16/20/19
f 16/20/19 32/19/18 31/21/20
s 6
f 15/22/21 34/23/22 1/24/23
f 1/24/23 34/23/22 33/25/24
s 2
f 10/26/25 5/27/26 30/28/27
f 30/28/27 5/27/26 24/29/28
s 6
f 7/30/29 36/31/30 11/32/31
f 11/32/31 36/31/30 35/33/32
s 4
f 7/34/33 11/35/34 25/36/35
f 25/36/35 11/35/34 26/37/36
s 5
f 40/38/37 39/39/38 12/40/39
f 12/40/39 39/39/38 8/41/40
s 2
f 14/7/6 10/26/25 29/9/8
f 29/9/8 10/26/25 30/28/27
s 4
f 11/35/34 15/14/13 26/37/36
f 26/37/36 15/14/13 27/16/15
s 3
f 38/42/41 18/43/42 39/44/43
f 39/44/43 18/43/42 8/45/44
s 4
f 19/46/45 12/47/46 18/48/47
f 18/48/47 12/47/46 8/49/48
f 20/50/49 16/51/50 19/46/45
f 19/46/45 16/51/50 12/47/46
f 44/52/51 2/53/52 20/50/49
f 20/50/49 2/53/52 16/51/50
s 1
f 43/54/53 32/55/54 44/56/55
f 44/57/55 32/55/54 2/58/56
s 2
f 22/59/57 13/60/58 21/61/59
f 21/61/59 13/60/58 4/62/60
f 23/63/61 9/64/62 22/59/57
f 22/59/57 9/64/62 13/60/58
f 17/65/63 6/66/64 23/63/61
f 23/63/61 6/66/64 9/64/62
s 4
f 26/37/36 19/46/45 25/36/35
f 25/36/35 19/46/45 18/48/47
f 27/16/15 20/50/49 26/37/36
f 26/37/36 20/50/49 19/46/45
f 41/67/16 44/68/51 27/16/15
f 27/16/15 44/52/51 20/50/49
s 2
f 29/9/8 22/59/57 28/8/7
f 28/8/7 22/59/57 21/61/59
f 30/28/27 23/63/61 29/9/8
f 29/9/8 23/63/61 22/59/57
f 24/29/28 17/65/63 30/28/27
f 30/28/27 17/65/63 23/63/61
s 5
f 32/19/18 4/69/65 31/21/20
f 31/21/20 4/69/65 13/70/66
s 1
f 21/71/67 4/72/68 43/73/53
f 43/73/53 4/72/68 32/55/54
f 28/74/69 21/71/67 42/75/4
f 42/5/4 21/71/67 43/54/53
f 33/2/2 3/76/70 42/75/4
f 42/75/4 3/76/70 28/74/69
s 6
f 34/23/22 14/77/71 33/25/24
f 33/25/24 14/77/71 3/78/72
f 35/33/32 10/79/73 34/23/22
f 34/23/22 10/79/73 14/77/71
f 36/31/30 5/80/74 35/33/32
f 35/33/32 5/80/74 10/79/73
s 3
f 5/81/75 36/10/9 24/82/76
f 24/82/76 36/10/9 37/12/11
f 24/82/76 37/12/11 17/83/77
f 17/83/77 37/12/11 38/42/41
f 17/83/77 38/42/41 6/84/78
f 6/84/78 38/42/41 39/44/43
s 5
f 9/85/79 6/86/80 40/38/37
f 40/38/37 6/86/80 39/39/38
f 13/70/66 9/85/79 31/21/20
f 31/21/20 9/85/79 40/38/37
